<?xml version="1.0" encoding="utf-8"?>
<!-- Generator: Adobe Illustrator 25.0.1, SVG Export Plug-In . SVG Version: 6.00 Build 0)  -->
<svg version="1.1" id="Layer_3" xmlns="http://www.w3.org/2000/svg" xmlns:xlink="http://www.w3.org/1999/xlink" x="0px" y="0px"
	 viewBox="0 0 360 360" style="enable-background:new 0 0 360 360;" xml:space="preserve">
<style type="text/css">
	.st0{fill:none;}
	.st1{fill:#FFFFFF;}
</style>
<g>
	<path d="M310.7,128.3c-5.1-8.3-11-16-17.6-23.1c-6.5-7.1-13.9-13.4-21.8-19c-3.9-2.9-8-5.3-12.2-7.8l-6.4-3.4
		c-1-0.6-2.2-1.1-3.3-1.5l-3.3-1.5c-1.1-0.5-2.2-1-3.3-1.4l-3.4-1.3c-2.3-0.8-4.5-1.8-6.8-2.4l-6.9-2l-7-1.6
		c-18.8-3.8-38.3-3.8-56.9,0.2c-18.7,3.9-36.3,11.9-51.7,23C94.9,97.5,81.8,111.7,72.2,128c-9.6,16.3-15.7,34.5-18,53.2
		C52,199.9,53.6,219,59,237c5.4,18,14.7,34.8,26.9,49c12.2,14.3,27.4,26,44.2,34.1c16.9,8.2,35.5,12.6,54.2,13.3
		c9.4,0.3,18.8-0.3,28-1.8c9.2-1.6,18.3-4.2,27-7.7c17.4-7,33.3-17.6,46.5-31c1.6-1.7,3.3-3.3,4.8-5.1l2.3-2.6l1.1-1.2l1-1.4
		c2.6-3.8,5.1-7.8,7.2-11.9c2.1-4.1,3.9-8.3,4.8-12.5c1-4.2,0.9-8.2-0.7-10.8c-0.8-1.3-1.9-2.4-3.6-3.2c-1.6-0.8-3.5-1.4-5.6-1.8
		c-4.2-0.7-8.8-0.7-13.4-0.3c-9.2,0.8-18.5,3.1-27.8,5.5c-8.9,2.4-17.2,6.5-24.6,12.1c-7.4,5.6-13.8,12.5-20,19.9
		c-3.1,3.7-6.1,7.5-9.4,11.3c-1.7,1.9-3.4,3.7-5.4,5.5c-2,1.8-4.2,3.4-6.8,4.7c-2.6,1.2-5.8,1.9-8.8,1.6c-3.1-0.2-5.8-1.3-8.2-2.6
		c-4.8-2.7-8.5-6.2-12-9.8l-0.1-0.1l-0.1-0.1c-5.4-6.9-10.3-14.1-14.9-21.5c-4.5-7.4-8.7-15.1-12-23.3c-1.6-4.1-3-8.3-3.8-12.8
		c-0.8-4.4-1.1-9.1,0-13.8c0.6-2.3,1.5-4.6,3-6.6c1.4-2,3.2-3.7,5.2-5c4.1-2.5,8.6-3.7,13-4.2c4.4-0.5,8.9-0.5,13.2-0.2
		c4.4,0.3,8.6,0.8,12.9,1.2l25.7,2.4c8.6,0.8,17.1,1.5,25.7,2.2c4.3,0.3,8.6,0.7,12.9,0.9c4.3,0.2,8.6,0.5,12.9,0.5
		c-4.3,0.2-8.6,0.1-12.9,0.1c-4.3-0.1-8.6-0.2-12.9-0.4c-8.6-0.3-17.2-0.7-25.8-1.2l-25.7-1.5l-6.4-0.4c-2.1-0.1-4.3-0.3-6.4-0.4
		c-4.2-0.2-8.4-0.1-12.5,0.5c-4.1,0.6-8,1.8-11.2,4c-3.2,2.2-5.3,5.4-6.1,9.1c-0.8,3.7-0.4,7.8,0.4,11.8c0.9,4,2.2,7.9,3.9,11.8
		c3.3,7.7,7.5,15.1,12.1,22.2c4.6,7.1,9.6,14,14.9,20.5l-0.2-0.2c3.3,3.3,6.8,6.4,10.6,8.3c1.9,1,3.8,1.6,5.6,1.7
		c1.8,0.1,3.6-0.3,5.3-1.1c3.5-1.7,6.8-5.1,9.8-8.6c3.1-3.6,6-7.4,9.1-11.2c6.1-7.6,12.9-15.2,20.9-21.5c8-6.3,17.3-11.1,27.2-13.9
		c9.5-2.6,19.1-5,29.3-6.1c5.1-0.5,10.3-0.7,15.7,0.2c2.7,0.5,5.5,1.2,8.2,2.6c2.7,1.4,5.3,3.6,7.1,6.5c1.8,2.9,2.5,6.1,2.7,9
		c0.2,3-0.2,5.8-0.8,8.5c-1.2,5.3-3.2,10.1-5.4,14.7c-2.3,4.6-4.9,8.9-7.7,13.1l-1.1,1.6c0,0-0.2,0.3-0.2,0.3l-0.2,0.2l-0.3,0.4
		l-0.6,0.7l-2.5,2.9c-1.6,2-3.4,3.7-5.1,5.6c-14,14.4-31,25.9-49.7,33.4c-9.3,3.8-19,6.6-29,8.3c-9.9,1.7-20,2.4-30,2.1
		c-20.1-0.6-40.1-5.6-58.2-14.4c-18.1-8.8-34.3-21.4-47.3-36.7c-6.5-7.7-12.2-16-17-24.8c-4.8-8.9-8.6-18.2-11.4-27.8
		c-5.6-19.3-7.2-39.7-4.6-59.6c1.3-9.9,3.6-19.7,7-29.2c3.3-9.4,7.7-18.5,12.9-27c10.4-17,24.5-31.8,40.8-43.2
		c16.4-11.3,35.1-19.2,54.6-22.8c9.7-1.8,19.7-2.6,29.6-2.4l7.4,0.4c1.2,0,2.5,0.2,3.7,0.4l3.7,0.4c1.2,0.2,2.5,0.3,3.7,0.5l3.6,0.7
		l3.6,0.7l1.8,0.3l1.8,0.5l7.2,1.8l7,2.3c2.4,0.7,4.6,1.7,6.9,2.6l3.4,1.4c1.1,0.5,2.2,1.1,3.3,1.6l3.3,1.6c1.1,0.5,2.2,1.1,3.3,1.7
		l6.4,3.6c4.1,2.7,8.3,5.3,12.1,8.3l2.9,2.2c1,0.8,1.9,1.6,2.8,2.4l2.8,2.4c0.9,0.8,1.9,1.6,2.7,2.5l5.2,5.1l4.9,5.5
		C300.4,111.8,305.9,119.8,310.7,128.3z"/>
	<path class="st0" d="M310.1,126.6"/>
	<g>
		<g transform="translate(-317.56 1048.9)">
			<g transform="matrix(2.0086 0 0 2.0086 -1890.9 644.28)">
				<g>
					<path class="st1" d="M1186.8-772.7c-7.8-12.7-28.9-57.6-31.3-62.7l0-0.1c-0.1-0.3,0-0.5,0.1-0.5c0,0,0.1-0.1,0.2-0.1
						c0.1,0,0.2,0.1,0.4,0.2l0,0.1c3.3,4.6,32.3,45,39.5,57.8c-0.1,0-0.2,0.1-0.3,0.1c-1.3,0.4-2.5,1-3.8,1.7
						C1190.1-775.2,1188.4-774.1,1186.8-772.7z"/>
					<path d="M1155.8-835.8c0.1,0,0.1,0.1,0.1,0.1l0,0.1c3.3,4.6,31.9,44.4,39.4,57.6c-1.3,0.5-2.5,1-3.8,1.7
						c-1.6,0.9-3.2,2-4.7,3.3c-7.9-13.1-28.7-57.3-31.1-62.4l0-0.1C1155.7-835.7,1155.7-835.8,1155.8-835.8
						C1155.7-835.8,1155.8-835.8,1155.8-835.8L1155.8-835.8 M1155.8-836.3L1155.8-836.3C1155.8-836.3,1155.8-836.3,1155.8-836.3
						c-0.1,0-0.3,0-0.3,0.1c0,0,0,0,0,0c-0.2,0.1-0.3,0.4-0.2,0.9c0.2,0.4,23.5,50,31.5,63c1.8-1.5,3.5-2.7,5.1-3.6
						c1.3-0.8,2.6-1.3,3.7-1.7c0.2-0.1,0.4-0.1,0.5-0.2c-7.3-13.2-39.5-57.9-39.7-58.2C1156.2-836.2,1156-836.3,1155.8-836.3
						L1155.8-836.3z"/>
				</g>
				<g>
					<path class="st1" d="M1199.9-754.9c-0.2-0.3-0.5-0.7-0.9-1.2c-0.9-1.2-2-2.7-3.3-4.5c-2.2-3.1-4.8-6.6-7.2-9.6
						c-0.1-0.2-0.3-0.4-0.4-0.6c1.4-1.2,2.9-2.3,4.4-3.2c1.2-0.7,2.5-1.3,3.8-1.8c0.2-0.1,0.4-0.1,0.6-0.2c0.1,0.2,0.2,0.3,0.2,0.5
						c0.4,1,0.9,2.2,1.5,3.6c1.1,2.5,2.3,5,3.3,7.3c1.3,2.7,2.4,5.1,2.9,6.5C1202.9-757.5,1201.2-756.5,1199.9-754.9z"/>
					<path d="M1196.7-775.5c0,0.1,0.1,0.2,0.1,0.3c0.4,1,0.9,2.2,1.5,3.6c1.1,2.5,2.3,5,3.3,7.3c1.2,2.6,2.2,4.8,2.8,6.2
						c-1.8,0.4-3.4,1.4-4.6,2.8c-0.2-0.3-0.4-0.6-0.7-0.9c-0.9-1.2-2-2.7-3.3-4.5c-2.2-3.1-4.8-6.6-7.2-9.6
						c-0.1-0.1-0.2-0.2-0.3-0.4c1.4-1.2,2.8-2.2,4.2-3c1.2-0.7,2.5-1.3,3.7-1.7C1196.5-775.4,1196.6-775.5,1196.7-775.5 M1197-776.1
						c-0.2,0.1-0.5,0.2-0.8,0.3c-1.1,0.4-2.4,1-3.8,1.8c-1.4,0.8-3,1.9-4.6,3.3c0.2,0.3,0.4,0.6,0.6,0.8c3.8,4.7,8,10.8,10.4,14.1
						c0.4,0.6,0.8,1,1.1,1.4c1.2-1.7,3.1-2.9,5.3-3.2c-0.9-2.5-3.9-8.4-6.4-14.1c-0.5-1.2-1.1-2.4-1.5-3.6
						C1197.2-775.6,1197.1-775.9,1197-776.1L1197-776.1z"/>
				</g>
				<path d="M1206.9-740.2c5.4,1.7,12.6,1.7,18.9,1.7c0.6,0,0.9-1.1,0-1.2c-5.3-1-7.9-3.2-9.5-6.8c0,0-0.1,0.1-0.1,0.1
					c-0.1,0.1-0.2,0.1-0.3,0.2s-0.2,0.2-0.3,0.2c-0.1,0.1-0.2,0.2-0.3,0.3c-0.1,0.1-0.2,0.2-0.2,0.3c-0.1,0.1-0.1,0.2-0.2,0.3
					s-0.1,0.2-0.2,0.3s-0.1,0.2-0.1,0.3c0,0.1-0.1,0.2-0.1,0.3c0,0.1,0,0.2,0,0.3c0,0.1,0,0.2,0,0.4c0,0.1,0,0.2,0,0.4
					s0,0.2-0.1,0.3s-0.1,0.2-0.1,0.3s-0.1,0.2-0.2,0.3s-0.1,0.2-0.2,0.3c-0.1,0.1-0.2,0.2-0.3,0.2c-0.1,0.1-0.2,0.1-0.3,0.2
					c-0.1,0.1-0.2,0.1-0.4,0.2c-0.1,0.1-0.3,0.1-0.4,0.2s-0.3,0.1-0.4,0.2c-0.3,0.1-0.6,0.2-0.9,0.3c-0.3,0.1-0.7,0.2-1,0.2
					c-0.3,0.1-0.7,0.1-1.1,0.2c-0.4,0-0.7,0.1-1.1,0.1S1207.4-740.2,1206.9-740.2C1207-740.2,1207-740.2,1206.9-740.2L1206.9-740.2z
					"/>
				<g>
					<path class="st1" d="M1206.9-740.4c-3.4-1-5.6-2.6-6.8-4.7c-0.6-1.1-0.9-2.4-0.9-3.7c0-0.9,0.2-1.8,0.5-2.7
						c1.1-3.1,4.1-5.1,7.4-5.1c3.3,0,6.2,2.1,7.4,5.1c0.2,0.4,0.3,0.9,0.4,1.3c0.4,1.4,0.8,2.5,1.2,3.6c-0.1,0.1-0.2,0.1-0.3,0.2
						l0,0c-0.1,0.1-0.2,0.1-0.3,0.2c-0.1,0.1-0.2,0.2-0.3,0.3c-0.1,0.1-0.2,0.2-0.2,0.3c-0.1,0.1-0.2,0.2-0.2,0.3
						c-0.1,0.1-0.1,0.2-0.2,0.3c-0.1,0.1-0.1,0.2-0.1,0.3c0,0.1-0.1,0.2-0.1,0.4c0,0.1,0,0.2,0,0.4c0,0.1,0,0.3,0,0.4
						c0,0.1,0,0.2,0,0.3c0,0.1,0,0.2-0.1,0.3c0,0.1-0.1,0.2-0.1,0.3c0,0.1-0.1,0.2-0.2,0.2c-0.1,0.1-0.1,0.1-0.2,0.2
						c-0.1,0.1-0.2,0.1-0.3,0.2c-0.1,0.1-0.2,0.1-0.3,0.2c-0.1,0.1-0.2,0.1-0.3,0.2c-0.1,0.1-0.3,0.1-0.4,0.2
						c-0.1,0.1-0.3,0.1-0.4,0.2c-0.3,0.1-0.6,0.2-0.9,0.3c-0.3,0.1-0.7,0.2-1,0.2c-0.3,0.1-0.7,0.1-1,0.2c-0.4,0-0.7,0.1-1,0.1
						C1207.7-740.5,1207.3-740.5,1206.9-740.4C1207-740.4,1207-740.4,1206.9-740.4z"/>
					<path d="M1207.1-756.4c3.2,0,6,2,7.1,5c0.2,0.4,0.3,0.8,0.3,1.3l0,0l0,0c0.3,1.3,0.7,2.4,1.1,3.4c0,0-0.1,0.1-0.1,0.1l0,0
						c-0.1,0.1-0.2,0.2-0.3,0.2c-0.1,0.1-0.2,0.2-0.3,0.3c-0.1,0.1-0.2,0.2-0.3,0.3c-0.1,0.1-0.2,0.2-0.2,0.3
						c-0.1,0.1-0.1,0.2-0.2,0.4c0,0.1-0.1,0.2-0.1,0.4c0,0.1-0.1,0.3-0.1,0.4c0,0.1,0,0.3,0,0.4c0,0.1,0,0.3,0,0.4
						c0,0.1,0,0.2,0,0.2c0,0.1,0,0.2,0,0.2c0,0.1,0,0.1-0.1,0.2c0,0.1-0.1,0.1-0.1,0.2c-0.1,0.1-0.1,0.1-0.2,0.2
						c-0.1,0.1-0.2,0.1-0.2,0.2c-0.1,0.1-0.2,0.1-0.3,0.2c-0.1,0.1-0.2,0.1-0.3,0.2c-0.1,0.1-0.2,0.1-0.4,0.2
						c-0.1,0.1-0.3,0.1-0.4,0.2c-0.3,0.1-0.6,0.2-0.9,0.3c-0.3,0.1-0.7,0.2-1,0.2c-0.3,0.1-0.7,0.1-1,0.2c-0.3,0-0.7,0.1-1,0.1
						c-0.4,0-0.7,0.1-1,0.1c0,0,0,0,0,0c-3.3-1-5.4-2.5-6.6-4.6c-0.6-1.1-0.9-2.3-0.9-3.6c0-0.9,0.2-1.8,0.5-2.6
						C1201-754.4,1203.9-756.4,1207.1-756.4 M1207.1-756.9c-3.5,0-6.5,2.2-7.6,5.3c-0.3,0.9-0.5,1.8-0.5,2.8c0,1.4,0.3,2.7,0.9,3.8
						c1.4,2.4,3.9,3.9,7,4.8c0,0,0.1,0,0.1,0c0.3,0,0.7,0,1-0.1c0.3,0,0.7-0.1,1.1-0.1c0.4,0,0.7-0.1,1.1-0.2c0.3-0.1,0.7-0.1,1-0.2
						c0.3-0.1,0.6-0.2,0.9-0.3c0.1-0.1,0.3-0.1,0.4-0.2c0.1-0.1,0.3-0.1,0.4-0.2c0.1-0.1,0.2-0.1,0.4-0.2s0.2-0.1,0.3-0.2
						c0.1-0.1,0.2-0.2,0.3-0.2c0.1-0.1,0.2-0.2,0.2-0.3c0.1-0.1,0.1-0.2,0.2-0.3s0.1-0.2,0.1-0.3c0-0.1,0-0.2,0.1-0.3
						c0-0.1,0-0.2,0-0.3c0-0.1,0-0.2,0-0.4c0-0.1,0-0.2,0-0.3c0-0.1,0-0.2,0.1-0.3c0-0.1,0.1-0.2,0.1-0.3c0-0.1,0.1-0.2,0.2-0.3
						c0.1-0.1,0.1-0.2,0.2-0.3c0.1-0.1,0.1-0.2,0.2-0.3c0.1-0.1,0.2-0.2,0.3-0.3c0.1-0.1,0.2-0.2,0.3-0.2c0.1-0.1,0.2-0.1,0.3-0.2
						c0,0,0.1-0.1,0.1-0.1c-0.5-1.1-0.9-2.3-1.3-3.7c-0.1-0.5-0.2-0.9-0.4-1.3C1213.5-754.7,1210.6-756.9,1207.1-756.9L1207.1-756.9
						z"/>
				</g>
			</g>
		</g>
	</g>
</g>
</svg>
