<svg xmlns="http://www.w3.org/2000/svg" xmlns:xlink="http://www.w3.org/1999/xlink" width="27.705" height="20.784" viewBox="0 0 27.705 20.784"><defs><style>.a{fill:#e85232;}.b{clip-path:url(#a);}</style><clipPath id="a"><rect class="a" width="27.705" height="20.784"/></clipPath></defs><g class="b"><path class="a" d="M0,17.843V2.941a1.3,1.3,0,0,0,.1-.22A3.4,3.4,0,0,1,3.468.016q8.3-.034,16.611,0a3.325,3.325,0,0,1,3.369,2.834,17.383,17.383,0,0,1,.024,2.677c-.66,0-1.311-.005-1.961,0a4.863,4.863,0,1,0,0,9.726c.651.005,1.3,0,2.01,0,0,.69,0,1.32,0,1.951a3.429,3.429,0,0,1-3.511,3.563q-8.243.029-16.488,0A3.4,3.4,0,0,1,.1,18.056a1.183,1.183,0,0,0-.1-.213" transform="translate(0 0)"/><path class="a" d="M26.405,13.276c-2.255,0-4.512.08-6.763-.014a3.314,3.314,0,0,1-2.922-3.4,3.31,3.31,0,0,1,2.922-3.341c2.25-.092,4.508-.016,6.763-.013ZM18.773,9.86A1.423,1.423,0,0,0,20.157,11.3a1.459,1.459,0,0,0,1.425-1.41,1.457,1.457,0,0,0-1.43-1.4A1.424,1.424,0,0,0,18.773,9.86" transform="translate(1.3 0.503)"/><path class="a" d="M26.005,5.525H23.279c0-1.937.157-3.907-1.408-5.431a3.455,3.455,0,0,1,4,2.5c.041.158.088.313.133.469Z" transform="translate(1.7 0.003)"/><path class="a" d="M26.01,16.742a9.315,9.315,0,0,1-.763,1.573,3.574,3.574,0,0,1-3.433,1.335c1.6-1.57,1.5-3.514,1.45-5.494H26.01Z" transform="translate(1.695 1.1)"/><path class="a" d="M18.625,9.715A1.424,1.424,0,0,1,20,8.338a1.457,1.457,0,0,1,1.43,1.4,1.459,1.459,0,0,1-1.425,1.41,1.423,1.423,0,0,1-1.384-1.436" transform="translate(1.448 0.648)"/></g></svg>