<svg xmlns="http://www.w3.org/2000/svg" xmlns:xlink="http://www.w3.org/1999/xlink" width="78" height="78" viewBox="0 0 78 78"><defs><style>.a{fill:none;}.b{fill:#fff;}.c{clip-path:url(#c);}.d{fill:#e85232;}.e{filter:url(#a);}</style><filter id="a" x="0" y="0" width="78" height="78" filterUnits="userSpaceOnUse"><feOffset dy="3" input="SourceAlpha"/><feGaussianBlur stdDeviation="3" result="b"/><feFlood flood-opacity="0.161"/><feComposite operator="in" in2="b"/><feComposite in="SourceGraphic"/></filter><clipPath id="c"><rect class="a" width="28" height="36"/></clipPath></defs><g transform="translate(9 6)"><g class="e" transform="matrix(1, 0, 0, 1, -9, -6)"><circle class="b" cx="30" cy="30" r="30" transform="translate(9 6)"/></g><g class="c" transform="translate(16 12)"><rect class="a" width="29" height="36"/><path class="d" d="M21.993,0A2.313,2.313,0,0,1,23.7.675a1.969,1.969,0,0,1,.733,1.574V33.728A1.969,1.969,0,0,1,23.7,35.3a2.313,2.313,0,0,1-1.711.675H2.444A2.313,2.313,0,0,1,.733,35.3,1.969,1.969,0,0,1,0,33.728V2.249A1.969,1.969,0,0,1,.733.675,2.313,2.313,0,0,1,2.444,0ZM20.283,26.982V6.071H4.154V26.982Zm-9.775,6.071a2.313,2.313,0,0,0,1.711.675,2.313,2.313,0,0,0,1.711-.675,2.056,2.056,0,0,0,0-3.148,2.313,2.313,0,0,0-1.711-.675,2.313,2.313,0,0,0-1.711.675,2.056,2.056,0,0,0,0,3.148Z" transform="translate(2.036 0)"/></g></g></svg>