<svg xmlns="http://www.w3.org/2000/svg" width="18.254" height="18.254" viewBox="0 0 18.254 18.254"><defs><style>.a{fill:#e85232;}.b{fill:#f7a89a;}</style></defs><path class="a" d="M1034.127,906.662a9.127,9.127,0,1,1-9.127,9.127,9.127,9.127,0,0,1,9.127-9.127" transform="translate(-1025 -906.662)"/><path class="b" d="M1045.1,924.446l-2.6,2.668-1.123,3.229,3.23-1.053,2.6-2.6Zm3.3-.211-.913-.913a.851.851,0,0,0-1.2-.061.835.835,0,0,0-.062.061l-.772.773,2.106,2.176.843-.843a.892.892,0,0,0,.281-.632.871.871,0,0,0-.281-.562" transform="translate(-1035.904 -917.565)"/></svg>