<svg xmlns="http://www.w3.org/2000/svg" width="96.954" height="96.919" viewBox="0 0 96.954 96.919"><path d="M48.862,96.919A48.46,48.46,0,1,1,96.954,48.25C97.131,74.4,76.4,96.413,48.862,96.919M95.7,48.2A47.209,47.209,0,1,0,49,95.585,47.175,47.175,0,0,0,95.7,48.2" transform="translate(0 -0.001)"/><path d="M33.492,37.719A34.8,34.8,0,0,1,18.9,34.283,52.5,52.5,0,0,1,3.978,23.852c-.923-.906-.929-1.579-.011-2.48A51.563,51.563,0,0,1,21.437,9.862,32.043,32.043,0,0,1,37.028,7.71a37.039,37.039,0,0,1,12.044,3.675,53.26,53.26,0,0,1,13.8,9.814c.1.095.195.195.295.295a1.387,1.387,0,0,1-.028,2.246c-1.257,1.179-2.508,2.374-3.837,3.47a48.9,48.9,0,0,1-15.069,8.635,33.018,33.018,0,0,1-10.737,1.874M6.591,22.579c.445.4.8.723,1.157,1.04a50.892,50.892,0,0,0,13.9,8.835,29.34,29.34,0,0,0,22.553.467,49.058,49.058,0,0,0,13.756-8.185c.817-.673,1.6-1.379,2.491-2.152a3.937,3.937,0,0,1-.406-.284A52.248,52.248,0,0,0,47.576,13.76,33.916,33.916,0,0,0,36.255,10.4,29.529,29.529,0,0,0,22.149,12.57a47.219,47.219,0,0,0-11.7,6.806c-1.3,1.012-2.536,2.1-3.853,3.2" transform="translate(14.964 34.194)"/><path d="M71.077,25.567c1.624-1.624,3.2-3.2,4.782-4.776.261-.261.512-.534.784-.784a1.371,1.371,0,1,1,1.918,1.957c-1.034,1.056-2.091,2.1-3.142,3.136-.7.7-1.4,1.385-2.141,2.113.322.272.606.5.884.74.617.528,1.24,1.056,1.852,1.6a1.388,1.388,0,0,1,.189,2.046,1.417,1.417,0,0,1-2.03-.006A58.49,58.49,0,0,0,54.013,19.695a41.736,41.736,0,0,0-15.63-2.341,44.739,44.739,0,0,0-16.814,4.3,57.81,57.81,0,0,0-15,9.936,1.386,1.386,0,0,1-2.018,0,1.351,1.351,0,0,1,.122-1.979c.884-.812,1.8-1.6,2.736-2.424-.111-.111-.217-.234-.334-.35Q4.7,24.441,2.307,22.064a1.418,1.418,0,0,1-.489-1.412,1.367,1.367,0,0,1,2.335-.617c1.157,1.129,2.291,2.285,3.436,3.431.673.678,1.34,1.357,2.041,2.074a62.766,62.766,0,0,1,12.183-6.973c-.334-.595-.639-1.14-.945-1.69-.984-1.763-1.979-3.52-2.947-5.288a1.369,1.369,0,1,1,2.391-1.334c.05.078.095.156.139.239,1.229,2.207,2.469,4.409,3.687,6.622.183.334.334.411.712.278a44.96,44.96,0,0,1,13.9-2.758c.072-.006.145-.022.267-.039v-.512c0-2.68.006-5.36-.006-8.046a1.418,1.418,0,0,1,.7-1.357,1.35,1.35,0,0,1,2.03,1.212c.022,1.646.011,3.3.011,4.949V14.6c1.051.089,2.063.156,3.064.267A47.6,47.6,0,0,1,55.67,17.4c.734.267.567.367.967-.35,1.218-2.157,2.424-4.331,3.636-6.494.061-.122.128-.245.2-.361a1.37,1.37,0,0,1,1.852-.512,1.354,1.354,0,0,1,.539,1.84c-.606,1.14-1.251,2.263-1.879,3.392S59.723,17.182,59.1,18.31c-.061.106-.111.217-.183.367a66.9,66.9,0,0,1,12.16,6.889" transform="translate(8.094 20.502)"/><path d="M17.964,8.19A11.274,11.274,0,1,1,6.693,19.077,11.273,11.273,0,0,1,17.964,8.19m0,19.8a8.519,8.519,0,1,0-8.513-8.352,8.525,8.525,0,0,0,8.513,8.352" transform="translate(30.503 37.34)"/><path d="M10.074,18.434a1.387,1.387,0,1,1-.117-2.752,4.3,4.3,0,0,0,4.2-4.2,1.391,1.391,0,0,1,1.991-1.357,1.375,1.375,0,0,1,.767,1.362,7.108,7.108,0,0,1-6.845,6.95" transform="translate(38.627 45.455)"/></svg>