<svg xmlns="http://www.w3.org/2000/svg" width="41.499" height="41.481" viewBox="0 0 41.499 41.481"><g transform="translate(-55.402 -0.02)"><path d="M44.192,41.49A20.741,20.741,0,1,1,64.777,20.66,20.723,20.723,0,0,1,44.192,41.49M64.241,20.639A20.205,20.205,0,1,0,44.25,40.921,20.19,20.19,0,0,0,64.241,20.639" transform="translate(32.123 0.012)"/><path d="M39.266,23.735V17.092c.595,0,1.145-.017,1.7,0,.386.017.583-.083.628-.514.074-.731.217-1.454.347-2.287H39.292a21.9,21.9,0,0,1,.019-2.285,1.137,1.137,0,0,1,1.15-1c.5-.045,1.009-.059,1.554-.09V8.558a23.416,23.416,0,0,0-3.349.033,3.015,3.015,0,0,0-2.425,2.9c-.064.888-.01,1.787-.01,2.789-.757,0-1.392.014-2.028,0-.388-.012-.535.143-.524.526.019.552.026,1.107,0,1.659-.024.474.131.669.628.638.593-.036,1.19-.007,1.828-.007V23.7c-3.556-.228-8.03-3.784-8.213-9.07a9.788,9.788,0,0,1,19.535-1.085,9.578,9.578,0,0,1-8.189,10.189" transform="translate(38.521 6.402)"/></g></svg>