<?xml version="1.0" encoding="utf-8"?>
<!-- Generator: Adobe Illustrator 25.0.1, SVG Export Plug-In . SVG Version: 6.00 Build 0)  -->
<svg version="1.1" xmlns="http://www.w3.org/2000/svg" xmlns:xlink="http://www.w3.org/1999/xlink" x="0px" y="0px"
	 viewBox="0 0 360 360" style="enable-background:new 0 0 360 360;" xml:space="preserve">
<style type="text/css">
	.st0{fill:#FFFFFF;}
</style>
<g id="Layer_1">
</g>
<g id="Layer_2">
	<g>
		<g>
			<path d="M272.4,226.9c-14.2,0-24.9-4.1-25.7-4.4l-0.1-0.1c-0.6-0.3-65.7-28.6-149.4,0.3l-0.1,0c-1.8,0.5-43.3,13-68.8-14.3
				c-25.9-27.7-4.9-59.2-4.7-59.6l0.1-0.1c0.2-0.3,20.6-26.3,58-6.3c14.8,4.4,27.3,2.4,37.1-6c7.4-6.3,10.3-13.9,10.4-14l0.2-0.4
				c0.6-1.1,15.1-26.9,42.8-26.9c27.7,0,40.1,21.3,40.6,22.2l0.2,0.5c0.6,1.5,14.7,36,49.6,24.8c35-17.7,56-0.3,62.3,11.4
				c6.8,12.8,12.4,42.1-15.6,61.4C296.9,224.4,283.6,226.9,272.4,226.9z M249.3,216c1.4,0.5,31.3,11.5,56-6.3
				c23.9-16.5,19.2-41.5,13.4-52.4c-5.1-9.7-22.9-23.8-53.2-8.3l-0.5,0.2c-21.7,7.1-36.5-1.2-45.1-9.4c-8.4-8-12.6-17.3-13.3-19.1
				c-1.2-2-11.9-18.5-34.4-18.5c-22.6,0-35.4,21.1-36.6,23.1c-0.7,1.6-4.3,9.7-12.2,16.5c-8.1,6.9-22.3,13.8-44,7.2L79,149l-0.3-0.2
				c-31.6-17-48.1,2.5-49.4,4.1c-1.3,2-17.6,27.7,4,50.8c22.1,23.6,60,12.8,61.5,12.4c45.1-15.6,84.6-14.8,109.8-11.4
				C231.4,208.3,247.8,215.3,249.3,216z"/>
		</g>
		<g>
			<path class="st0" d="M80.4,145.7c0,0-15.3,101.8,90.2,110.2c114-9.5,93.3-110.1,93.3-110.1S233,158,213.7,126.4
				c-16.8-31.9-41.6-27.8-41.6-27.8s-24.1-2.8-43.1,30.8C109.2,160,80.4,145.7,80.4,145.7z"/>
			<path d="M170.6,259.5l-0.3,0c-32.6-2.6-57.4-14.2-73.5-34.6c-26.5-33.4-20.2-77.8-19.9-79.7l0.7-4.8l4.3,2.1
				c1.1,0.5,26.2,12.4,44.2-15c18.6-32.9,42.1-32.7,46-32.5c3.8-0.5,28-2,44.7,29.6c17.5,28.5,44.7,18.4,45.9,17.9l3.9-1.5l0.8,4
				c0.4,1.8,8.5,43.4-16.2,76.5c-16.5,22-43.5,34.7-80.2,37.8L170.6,259.5z M83.4,150.6c-0.8,11.7-1.1,44.8,18.9,70
				c14.8,18.7,37.8,29.4,68.2,31.9c34.5-2.9,59.7-14.7,74.9-34.9c18.8-25,16.9-56.5,15.6-67.2c-9.7,2.2-34.1,4.6-50.3-22.1l-0.1-0.2
				c-15.3-29.1-37-26.1-37.9-25.9l-0.5,0.1l-0.5-0.1c-0.9-0.1-22.2-1.9-39.6,29l-0.1,0.2c-11.1,17.1-25,21-34.7,21.2
				C91.7,152.7,86.8,151.6,83.4,150.6z"/>
		</g>
		<g>
			<path d="M148.2,155.9c-0.8,0-1.5-0.5-1.8-1.2c-0.4-1,0.1-2.2,1.1-2.6l23.9-10c0.5-0.2,1.1-0.2,1.6,0l22.9,10c1,0.4,1.5,1.6,1,2.6
				c-0.4,1-1.6,1.5-2.6,1l-22.2-9.6l-23.2,9.6C148.7,155.8,148.5,155.9,148.2,155.9z"/>
		</g>
		<g>
			<path d="M170.2,187.8c-0.2,0-0.4,0-0.6,0c-7-0.3-40.1-5.8-41.5-6c-1.1-0.2-1.8-1.2-1.6-2.3c0.2-1.1,1.2-1.8,2.3-1.6
				c0.3,0.1,34.2,5.6,41,6c5.5,0.3,34.2-4.7,44.8-6.6c1.1-0.2,2.1,0.5,2.3,1.6c0.2,1.1-0.5,2.1-1.6,2.3
				C213.7,181.4,178.5,187.8,170.2,187.8z"/>
		</g>
		<g>
			<path d="M173.7,229.4c-10.2,0-53.7-16.7-55.6-17.4c-1-0.4-1.5-1.6-1.1-2.6c0.4-1,1.6-1.5,2.6-1.1c12.4,4.8,46.3,17.2,54.2,17.2
				c7.8,0,38.8-12.8,50.1-17.8c1-0.4,2.2,0,2.6,1c0.4,1,0,2.2-1,2.6C223.7,212,183.9,229.4,173.7,229.4z"/>
		</g>
	</g>
</g>
</svg>
