<svg xmlns="http://www.w3.org/2000/svg" xmlns:xlink="http://www.w3.org/1999/xlink" width="24.568" height="24.434" viewBox="0 0 24.568 24.434"><defs><style>.a{fill:none;}.b{clip-path:url(#a);}.c{fill:#fff;}</style><clipPath id="a"><rect class="a" width="24.568" height="24.434"/></clipPath></defs><g class="b"><path class="c" d="M70.022,4.975A12.309,12.309,0,0,0,62.742.566a20.248,20.248,0,0,1,3.007,4.409Z" transform="translate(-48.131 -0.434)"/><path class="c" d="M79.161,29.763c.012.2.014.4.019.6h5.144a12.218,12.218,0,0,0-1.864-5.95H77.9a16.491,16.491,0,0,1,1.265,5.351" transform="translate(-59.756 -18.727)"/><path class="c" d="M77.178,60.785h4.756a12.215,12.215,0,0,0,1.839-5.911H78.618a16.8,16.8,0,0,1-1.44,5.911" transform="translate(-59.205 -42.095)"/><path class="c" d="M61.964,89.648a12.3,12.3,0,0,0,7.491-4.48H64.963a25.046,25.046,0,0,1-3,4.48" transform="translate(-47.534 -65.334)"/><path class="c" d="M57.066,85.168v4.066a24.772,24.772,0,0,0,2.843-4.066Z" transform="translate(-43.777 -65.334)"/><path class="c" d="M62.044,54.874H57.066v5.911h3.429a15.9,15.9,0,0,0,1.549-5.911" transform="translate(-43.777 -42.095)"/><path class="c" d="M57.066,1.722v4.14h3.02a19.651,19.651,0,0,0-3.02-4.14" transform="translate(-43.777 -1.321)"/><path class="c" d="M62.041,29.845a15.369,15.369,0,0,0-1.387-5.433H57.066v5.95h4.991c0-.172-.005-.344-.016-.517" transform="translate(-43.777 -18.727)"/><path class="c" d="M11.365,85.168a12.293,12.293,0,0,0,8.32,4.6,25.153,25.153,0,0,1-3.1-4.6Z" transform="translate(-8.718 -65.334)"/><path class="c" d="M31.745,60.785h3.564V54.874H30.2a15.9,15.9,0,0,0,1.549,5.911" transform="translate(-23.164 -42.095)"/><path class="c" d="M30.157,29.845c-.01.172-.012.344-.016.517h5.126v-5.95H31.544a15.375,15.375,0,0,0-1.387,5.433" transform="translate(-23.122 -18.727)"/><path class="c" d="M41.76,5.4V1.124A19.564,19.564,0,0,0,38.6,5.4Z" transform="translate(-29.615 -0.862)"/><path class="c" d="M5.887,54.874H0a12.215,12.215,0,0,0,1.84,5.911H7.327a16.794,16.794,0,0,1-1.44-5.911" transform="translate(0 -42.095)"/><path class="c" d="M19.626,0A12.294,12.294,0,0,0,11.495,4.54h5A20.22,20.22,0,0,1,19.626,0" transform="translate(-8.818 0.001)"/><path class="c" d="M42.341,89.388v-4.22H39.362a24.963,24.963,0,0,0,2.979,4.22" transform="translate(-30.195 -65.334)"/><path class="c" d="M5.893,29.763a16.491,16.491,0,0,1,1.265-5.351H1.863A12.216,12.216,0,0,0,0,30.362H5.874c0-.2.007-.4.019-.6" transform="translate(0.001 -18.727)"/></g></svg>