<svg xmlns="http://www.w3.org/2000/svg" xmlns:xlink="http://www.w3.org/1999/xlink" width="28.608" height="26.24" viewBox="0 0 28.608 26.24"><defs><style>.a{fill:#e85232;}.b{clip-path:url(#a);}</style><clipPath id="a"><rect class="a" width="28.608" height="26.24"/></clipPath></defs><g class="b"><path class="a" d="M12.934,29.719c-.424-.035-.848-.073-1.272-.1a19.964,19.964,0,0,1-4.4-.908.263.263,0,0,1-.139-.2c-.008-1.244-.045-2.49,0-3.732a4.27,4.27,0,0,1,3.6-3.9,10.186,10.186,0,0,1,1.488-.065,23.938,23.938,0,0,1,2.768.067,4.161,4.161,0,0,1,3.6,3.816c.08,1.257.043,2.521.045,3.784,0,.078-.109.19-.194.231a9.469,9.469,0,0,1-2.75.8c-.517.077-1.041.112-1.561.168-.1.011-.19.032-.285.05Z" transform="translate(-1.188 -3.479)"/><path class="a" d="M32.659,20.386c-.364.136-.723.283-1.092.4a13.256,13.256,0,0,1-3.532.619c-.043,0-.087-.006-.173-.012,0-.411.013-.819,0-1.224A5.1,5.1,0,0,0,24.438,15.5c-.065-.023-.127-.054-.217-.092a4.248,4.248,0,0,0,1.272-2.879c.914,0,1.8-.009,2.69,0a6.219,6.219,0,0,1,1.084.1,4.29,4.29,0,0,1,3.343,3.645,1.723,1.723,0,0,0,.05.2Z" transform="translate(-4.052 -2.096)"/><path class="a" d="M7.513,16.609A4.3,4.3,0,0,0,8.789,19.5a5.284,5.284,0,0,0-2.945,2.306,6.087,6.087,0,0,0-.7,3.7c-.658-.082-1.279-.119-1.883-.241-1-.2-1.987-.463-2.982-.689C.054,24.521,0,24.407,0,24.185c.012-1.138,0-2.277,0-3.414A4.3,4.3,0,0,1,3.443,16.7a7.792,7.792,0,0,1,1.165-.1c.854-.014,1.707,0,2.561,0,.1,0,.21.009.345.016" transform="translate(0 -2.775)"/><path class="a" d="M18.9,16.593c.08,0,.22,0,.359,0,.977.014,1.958-.026,2.929.054a4.224,4.224,0,0,1,3.761,3.9c.059,1.232.035,2.469.033,3.7a.379.379,0,0,1-.2.26,8.947,8.947,0,0,1-2.513.759c-.67.115-1.352.169-2.068.254,0-.376,0-.7,0-1.027a5.158,5.158,0,0,0-1.184-3.344,5.038,5.038,0,0,0-2.167-1.541l-.243-.092a11.36,11.36,0,0,0,.839-1.368,11.473,11.473,0,0,0,.451-1.564" transform="translate(-2.945 -2.776)"/><path class="a" d="M16.762,3.7A3.665,3.665,0,1,1,13.123,0a3.683,3.683,0,0,1,3.639,3.7" transform="translate(-1.578 0)"/><path class="a" d="M9.99,15.741a3.372,3.372,0,1,1,3.359,3.406A3.357,3.357,0,0,1,9.99,15.741" transform="translate(-1.671 -2.076)"/><path class="a" d="M2.872,11.6a3.369,3.369,0,0,1,6.692-.553c.008.052.022.1.029.157a.833.833,0,0,1-.279.864,3.761,3.761,0,0,0-1.224,2.16.462.462,0,0,1-.267.359A3.369,3.369,0,0,1,2.872,11.6" transform="translate(-0.48 -1.377)"/><path class="a" d="M30.136,7.54a3.371,3.371,0,0,1-4.544,3.132.418.418,0,0,1-.3-.372,4.155,4.155,0,0,0-1.733-2.738.425.425,0,0,1-.149-.322,3.227,3.227,0,0,1,1.777-2.7,3.366,3.366,0,0,1,4.952,3" transform="translate(-3.915 -0.692)"/><path class="a" d="M20.088,8.225a3.37,3.37,0,0,1,.5,6.7,3.141,3.141,0,0,1-1.749-.208.411.411,0,0,1-.215-.253,4.226,4.226,0,0,0-1.78-2.833.386.386,0,0,1-.124-.285,3.358,3.358,0,0,1,3.368-3.124" transform="translate(-2.797 -1.376)"/><path class="a" d="M15.881,9.169a4.11,4.11,0,0,0-.78,2.18,4.15,4.15,0,0,0-3.47.149,11.359,11.359,0,0,0-.259-1.188,12.023,12.023,0,0,0-.506-1.137,49.13,49.13,0,0,1,5.015,0" transform="translate(-1.818 -1.523)"/></g></svg>