<svg xmlns="http://www.w3.org/2000/svg" width="96.995" height="96.923" viewBox="0 0 96.995 96.923"><path d="M97,48.653A48.643,48.643,0,0,1,48.509,96.922C21.815,96.934-.155,74.93,0,48.342A48.5,48.5,0,0,1,97,48.653M95.7,48.22A47.184,47.184,0,1,0,49.02,95.589,47.141,47.141,0,0,0,95.7,48.22" transform="translate(0 0)"/><path d="M19.355,4.274C3.744,4-10.7,28.4,31.382,53.71a.18.18,0,0,1,.272,0C75.089,27.583,58.3,2.423,42.17,4.385c-6.286.761-9.254,4.252-10.654,7.253-1.4-3-4.363-6.491-10.654-7.253a12.317,12.317,0,0,0-1.506-.111" transform="translate(16.982 19.469)"/></svg>