<svg xmlns="http://www.w3.org/2000/svg" width="41.514" height="41.467" viewBox="0 0 41.514 41.467"><defs><style>.a{fill:#0a1b2b;}.b{fill:#1c1c1c;}</style></defs><path d="M88.063,20.575A20.757,20.757,0,1,1,67.012.01,20.719,20.719,0,0,1,88.063,20.575M67.326,40.938A20.2,20.2,0,1,0,47.082,20.751,20.265,20.265,0,0,0,67.326,40.938" transform="translate(-46.549 -0.007)"/><path d="M61.271,24.508c-1.452,0-2.9.043-4.351-.01-3.415-.119-5.5-1.913-5.724-5.3a72.813,72.813,0,0,1,.012-9.313c.207-3.246,2-5.048,5.238-5.236a76.936,76.936,0,0,1,9.458.024c3.3.212,5.131,2.225,5.248,5.531.1,2.9.1,5.8.007,8.7-.071,2.385-1.078,4.336-3.46,5.141a15.417,15.417,0,0,1-3.665.5c-.916.076-1.84.014-2.763.014ZM61.157,6.389v0c-1.4,0-2.818-.081-4.213.031a6.09,6.09,0,0,0-2.411.7c-1.328.731-1.559,2.123-1.587,3.475q-.086,4.041.014,8.085a5.449,5.449,0,0,0,.535,2.185,3.508,3.508,0,0,0,3.339,1.818c2.37.086,4.746.1,7.118.119a10.9,10.9,0,0,0,2.063-.169c2.209-.414,3.232-1.49,3.32-3.815.1-2.849.114-5.71,0-8.558-.1-2.513-1.371-3.7-3.894-3.848-1.426-.083-2.856-.014-4.286-.014" transform="translate(-40.332 6.209)"/><path class="a" d="M59.444,7.176A1.225,1.225,0,0,1,58.22,8.335a1.177,1.177,0,1,1,1.223-1.159" transform="translate(-32.036 8.237)"/><path class="b" d="M57.986,15.865h-.036A4.492,4.492,0,0,1,54.74,8.154a4.512,4.512,0,0,1,3.2-1.33h.033a4.527,4.527,0,0,1,3.182,7.742,4.468,4.468,0,0,1-3.17,1.3m-.017-2.38a2.127,2.127,0,0,0,2.147-2.2,2.165,2.165,0,0,0-3.7-1.442,2.151,2.151,0,0,0-.654,1.535,2.174,2.174,0,0,0,2.209,2.106" transform="translate(-37.121 9.401)"/></svg>