<svg xmlns="http://www.w3.org/2000/svg" xmlns:xlink="http://www.w3.org/1999/xlink" width="37" height="37" viewBox="0 0 37 37"><defs><style>.a{fill:none;}.b{clip-path:url(#a);}.c{fill:#e85232;fill-rule:evenodd;}</style><clipPath id="a"><rect class="a" width="37" height="37"/></clipPath></defs><g class="b"><rect class="a" width="37" height="37" transform="translate(0 0)"/><path class="c" d="M15.182,21.966a6.444,6.444,0,0,0,6.455-6.455,6.642,6.642,0,0,0-6.455-6.685A6.444,6.444,0,0,0,8.727,15.28,6.8,6.8,0,0,0,15.182,21.966ZM4.347,4.445a15.323,15.323,0,1,1,21.67,21.67L15.182,36.95,4.347,26.115A15.741,15.741,0,0,1,4.347,4.445Z" transform="translate(0.975 0.05)"/></g></svg>