<svg xmlns="http://www.w3.org/2000/svg" width="283" height="283" viewBox="0 0 283 283"><defs><style>.a,.b,.f{fill:#ed755b;}.a{opacity:0.5;}.c{fill:#fff;}.d,.e{fill:none;stroke-miterlimit:10;stroke-width:0.25px;}.d{stroke:#ed755b;}.e{stroke:#e85232;}.f{opacity:0.2;}</style></defs><circle class="a" cx="71.5" cy="71.5" r="71.5" transform="translate(70 70)"/><circle class="b" cx="36.5" cy="36.5" r="36.5" transform="translate(105 105)"/><g transform="translate(96.19 104.001)"><g transform="translate(0 0)"><path class="c" d="M124.4,80.267A23.456,23.456,0,0,0,95.159,57.721,23,23,0,0,0,84.716,63.5l1.9,1.106a17.842,17.842,0,0,1,2.334-2c6.727-4.792,14.191-4.853,21.532-1.413,7.188,3.379,11,9.307,11.826,17.17A25.233,25.233,0,0,1,115.4,99.218c-5.529,5.805-11.549,11.181-17.416,16.679-3.072,2.887-6.358,5.59-9.338,8.57-2.918,2.949-5.59,6.143-8.508,9.4-8.2-11.365-19.5-19.535-29.641-28.935-5.9-5.467-10.382-11.672-11.979-19.72A21.717,21.717,0,0,1,59.068,58.95a20.784,20.784,0,0,1,14.713,5.191l1.659-.952C69.358,57.813,62.231,55.663,54,57.782c-8.877,2.3-14.836,8.078-17.017,17.017-2.242,9.246.307,17.785,6.266,24.849,4.638,5.5,10.167,10.228,15.542,15.082C65.825,121.088,73.074,127.2,78.634,135c1.444,2.027,1.72,2.089,3.225.031,4.73-6.42,10.536-11.764,16.464-17.017,5.744-5.13,11.457-10.29,16.925-15.727A29.288,29.288,0,0,0,124.4,80.267Z" transform="translate(-36.177 -56.977)"/><g transform="translate(31.264 5.276)"><path class="c" d="M146.388,96.41l-8.2-7.31a1.919,1.919,0,0,0,.4,2.334l5.406,4.822A1.947,1.947,0,0,0,146.388,96.41Z" transform="translate(-137.96 -84.509)"/><path class="c" d="M151.813,80.884a1.72,1.72,0,0,0-.154-2.457L148.956,76l-2.918,1.689c.031.061.031.123.061.184a2.118,2.118,0,0,0-.246-.092l-3.1,1.782,3.1-1.782a3.831,3.831,0,0,0-4.27,1.014l-.184.215,8.293,7.372.184-.215a3.8,3.8,0,0,0,.246-4.73,1.288,1.288,0,0,0,.491.031A1.788,1.788,0,0,0,151.813,80.884Z" transform="translate(-140.343 -75.432)"/><path class="c" d="M159.082,74.6a1.72,1.72,0,0,0-2.457.154,1.824,1.824,0,0,0-.369,1.659L159.2,74.72Z" transform="translate(-150.592 -74.152)"/></g><g transform="translate(44.799 5.79)"><path class="c" d="M193.3,97.91l8.2-7.31a1.919,1.919,0,0,1-.4,2.334L195.7,97.788A1.986,1.986,0,0,1,193.3,97.91Z" transform="translate(-189.837 -86.062)"/><path class="c" d="M192.677,80.157a3.893,3.893,0,0,0-4.208-1.044l2.212,1.29-2.212-1.29a1.091,1.091,0,0,0-.276.123,2.116,2.116,0,0,0,.092-.246L185.4,77.3l-2.8,2.488a1.774,1.774,0,0,0-.154,2.457,1.665,1.665,0,0,0,1.2.584,2.809,2.809,0,0,0,.491-.031,3.794,3.794,0,0,0,.246,4.73l.184.215,8.293-7.372Z" transform="translate(-182.027 -76.847)"/><path class="c" d="M195.419,76.4a1.774,1.774,0,0,0-2.457-.154l-.061.061L195.787,78A1.688,1.688,0,0,0,195.419,76.4Z" transform="translate(-189.56 -75.827)"/></g><g transform="translate(7.041 41.167)"><path class="c" d="M70.219,204.914,59.561,194.256a1.594,1.594,0,0,1,0-2.242l.553-.553a1.594,1.594,0,0,1,2.242,0l10.658,10.658a1.594,1.594,0,0,1,0,2.242l-.553.553A1.594,1.594,0,0,1,70.219,204.914Z" transform="translate(-59.1 -191)"/><g transform="translate(1.505 1.782)"><g transform="translate(0.369 0.369)"><line class="d" x1="0.921" y2="0.891"/><line class="d" x2="0.921" y2="0.891"/></g><circle class="d" cx="0.829" cy="0.829" r="0.829"/></g><g transform="translate(11.15 11.058)"><g transform="translate(0.369 0.369)"><line class="e" x2="0.921" y2="0.921"/></g><circle class="d" cx="0.829" cy="0.829" r="0.829"/></g></g></g><g transform="translate(23.29 22.768)"><path class="c" d="M112.307,152.632a.349.349,0,0,1-.246-.092.331.331,0,0,1-.061-.246V131.438a.723.723,0,0,1,.061-.246.3.3,0,0,1,.246-.092h.86a.865.865,0,0,1,.645.215.769.769,0,0,1,.246.553v19.013h1.874a.786.786,0,0,1,.584.246.865.865,0,0,1,.215.645v.522a.349.349,0,0,1-.092.246.331.331,0,0,1-.246.061h-4.085Z" transform="translate(-112 -131.1)"/><path class="c" d="M150.931,144.042a2.436,2.436,0,0,1,.768-1.935,3.154,3.154,0,0,1,2.181-.706,3.767,3.767,0,0,1,1.2.184,3.165,3.165,0,0,1,.952.522,2.262,2.262,0,0,1,.584.829,2.452,2.452,0,0,1,.215,1.106v13.331a2.436,2.436,0,0,1-.768,1.935,3.154,3.154,0,0,1-2.181.706,3.824,3.824,0,0,1-1.229-.184,2.679,2.679,0,0,1-.921-.522,2.437,2.437,0,0,1-.614-.829,3.08,3.08,0,0,1-.215-1.106V144.042Zm3.839,0a.993.993,0,0,0-.215-.676.8.8,0,0,0-.676-.246.905.905,0,0,0-.676.246.943.943,0,0,0-.215.676v13.331a.993.993,0,0,0,.215.676,1.052,1.052,0,0,0,1.352,0,.943.943,0,0,0,.215-.676Z" transform="translate(-138.951 -138.236)"/><path class="c" d="M194,160.253a.315.315,0,0,1-.307-.307L192,142.5a.5.5,0,0,1,.092-.276.356.356,0,0,1,.307-.123h.737a.964.964,0,0,1,.645.215.8.8,0,0,1,.276.553l.8,12.962.8-12.962a.953.953,0,0,1,.276-.553.865.865,0,0,1,.645-.215h.768a.324.324,0,0,1,.307.123.5.5,0,0,1,.092.276l-1.689,17.447a.315.315,0,0,1-.307.307Z" transform="translate(-167.427 -138.721)"/><path class="c" d="M236.892,142.131a.579.579,0,0,1,.246.061.3.3,0,0,1,.092.246v.522a.865.865,0,0,1-.215.645.786.786,0,0,1-.584.246h-1.874v6.573h2.027a.579.579,0,0,1,.246.061.3.3,0,0,1,.092.246v.522a.865.865,0,0,1-.215.645.787.787,0,0,1-.584.246h-1.566v6.389h1.874a.786.786,0,0,1,.584.246.865.865,0,0,1,.215.645v.522a.349.349,0,0,1-.092.246c-.061.061-.123.061-.246.061h-4.085a.349.349,0,0,1-.246-.092.331.331,0,0,1-.061-.246V142.438a.724.724,0,0,1,.061-.246.3.3,0,0,1,.246-.092h4.085Z" transform="translate(-195.487 -138.721)"/></g></g><circle class="f" cx="141.5" cy="141.5" r="141.5"/></svg>