<?xml version="1.0" encoding="utf-8"?>
<!-- Generator: Adobe Illustrator 25.0.1, SVG Export Plug-In . SVG Version: 6.00 Build 0)  -->
<svg version="1.1" id="Layer_3" xmlns="http://www.w3.org/2000/svg" xmlns:xlink="http://www.w3.org/1999/xlink" x="0px" y="0px"
	 viewBox="0 0 360 360" style="enable-background:new 0 0 360 360;" xml:space="preserve">
<style type="text/css">
	.st0{fill:#FF000C;}
</style>
<g>
	<g>
		<g id="suUrXw_1_">
			<g>
				<g>
					<g>
						<path d="M323.4,132.8c-0.9-49.9-46.8-85.4-95.2-73.4c-13.5,3.3-24.5,9.9-34,18.8l6.2,3.6c2.4-2.4,4.9-4.6,7.6-6.5
							c21.9-15.6,46.2-15.8,70.1-4.6c23.4,11,35.8,30.3,38.5,55.9c2.8,26-4.7,49.2-22.5,67.9c-18,18.9-37.6,36.4-56.7,54.3
							c-10,9.4-20.7,18.2-30.4,27.9c-9.5,9.6-18.2,20-27.7,30.6c-26.7-37-63.5-63.6-96.5-94.2c-19.2-17.8-33.8-38-39-64.2
							c-8.6-43.6,22.6-84.2,66.9-85.5c18.9-0.5,34.9,5.5,47.9,16.9l5.4-3.1C144.2,59.7,121,52.7,94.2,59.6
							c-28.9,7.5-48.3,26.3-55.4,55.4c-7.3,30.1,1,57.9,20.4,80.9c15.1,17.9,33.1,33.3,50.6,49.1c22.9,20.7,46.5,40.6,64.6,66
							c4.7,6.6,5.6,6.8,10.5,0.1c15.4-20.9,34.3-38.3,53.6-55.4c18.7-16.7,37.3-33.5,55.1-51.2C313.3,184.9,323.9,161.2,323.4,132.8
							z"/>
					</g>
				</g>
			</g>
		</g>
		<g>
			<g>
				<g>
					<path class="st0" d="M165.4,112.9l-26.7-23.8c-1.3,2.5-0.9,5.7,1.3,7.6l17.6,15.7C159.9,114.4,163.1,114.5,165.4,112.9z"/>
				</g>
				<g>
					<path class="st0" d="M175.3,91.9c2.1-2.3,1.9-5.9-0.5-8L166,76l-9.5,5.5c0.1,0.2,0.1,0.4,0.2,0.6c-0.2-0.1-0.5-0.2-0.8-0.3
						l-10.1,5.8l10.1-5.8c-4.7-1.9-10.3-0.7-13.9,3.3l-0.6,0.7l27,24l0.6-0.7c3.9-4.4,4.1-10.8,0.8-15.4c0.5,0.1,1,0.2,1.6,0.1
						C172.9,93.7,174.3,93,175.3,91.9z"/>
				</g>
				<g>
					<path class="st0" d="M165.6,75.6c-2.3-2.1-5.9-1.9-8,0.5c-1.3,1.5-1.7,3.6-1.2,5.4L166,76L165.6,75.6z"/>
				</g>
			</g>
		</g>
		<g>
			<g>
				<g>
					<path class="st0" d="M193.3,114.4L220,90.6c1.3,2.5,0.9,5.7-1.3,7.6L201.1,114C198.9,115.9,195.6,116,193.3,114.4z"/>
				</g>
				<g>
					<path class="st0" d="M216.7,86.6c-3.5-3.9-9-5.1-13.7-3.4l7.2,4.2l-7.2-4.2c-0.3,0.1-0.6,0.2-0.9,0.4c0.1-0.2,0.2-0.5,0.3-0.8
						l-9.4-5.5l-9.1,8.1c-2.3,2.1-2.5,5.6-0.5,8c1,1.2,2.4,1.8,3.9,1.9c0.5,0,1,0,1.6-0.1c-3.3,4.6-3.1,11.1,0.8,15.4l0.6,0.7l27-24
						L216.7,86.6z"/>
				</g>
				<g>
					<path class="st0" d="M201.1,77.7c-2.1-2.3-5.6-2.5-8-0.5l-0.2,0.2l9.4,5.5C202.8,81.1,202.4,79.1,201.1,77.7z"/>
				</g>
			</g>
		</g>
	</g>
	<g>
		<g>
			<path d="M95.3,236.3l-34.7-34.7c-2-2-2-5.3,0-7.3l1.8-1.8c2-2,5.3-2,7.3,0l34.7,34.7c2,2,2,5.3,0,7.3l-1.8,1.8
				C100.6,238.3,97.3,238.3,95.3,236.3z"/>
		</g>
		<g>
			<g>
				<g>
					<polygon class="st0" points="65.3,201 65.1,200.8 68.1,197.9 68.2,198.1 					"/>
				</g>
				<g>
					<polygon class="st0" points="68.1,201 65.1,198.1 65.3,197.9 68.2,200.8 					"/>
				</g>
			</g>
			<g>
				<path class="st0" d="M66.7,202.3c-1.6,0-2.9-1.3-2.9-2.9s1.3-2.9,2.9-2.9c1.6,0,2.9,1.3,2.9,2.9S68.3,202.3,66.7,202.3z
					 M66.7,196.8c-1.4,0-2.6,1.2-2.6,2.6c0,1.4,1.2,2.6,2.6,2.6s2.6-1.2,2.6-2.6C69.3,198,68.1,196.8,66.7,196.8z"/>
			</g>
		</g>
		<g>
			<g>
				<g>
					
						<rect x="98" y="227.6" transform="matrix(0.707 -0.7072 0.7072 0.707 -133.7083 136.6708)" class="st0" width="0.2" height="4.2"/>
				</g>
			</g>
			<g>
				<path class="st0" d="M98.1,232.6c-1.6,0-2.9-1.3-2.9-2.9s1.3-2.9,2.9-2.9c1.6,0,2.9,1.3,2.9,2.9S99.7,232.6,98.1,232.6z
					 M98.1,227.1c-1.4,0-2.6,1.2-2.6,2.6s1.2,2.6,2.6,2.6s2.6-1.2,2.6-2.6S99.5,227.1,98.1,227.1z"/>
			</g>
		</g>
	</g>
</g>
<g>
	<g>
		<path class="st0" d="M113,201.2c-0.3,0-0.6-0.1-0.8-0.3c-0.2-0.2-0.2-0.5-0.2-0.8v-67.9c0-0.3,0.1-0.5,0.2-0.8
			c0.2-0.2,0.4-0.3,0.8-0.3h2.8c0.9,0,1.6,0.2,2.1,0.7c0.5,0.5,0.8,1.1,0.8,1.8v61.9h6.1c0.8,0,1.4,0.3,1.9,0.8
			c0.5,0.5,0.7,1.2,0.7,2.1v1.7c0,0.3-0.1,0.6-0.3,0.8c-0.2,0.2-0.5,0.2-0.8,0.2H113z"/>
	</g>
	<g>
		<path class="st0" d="M151,150c0-2.7,0.8-4.8,2.5-6.3c1.7-1.5,4-2.3,7.1-2.3c1.4,0,2.7,0.2,3.9,0.6c1.2,0.4,2.2,1,3.1,1.7
			c0.8,0.8,1.5,1.6,1.9,2.7c0.5,1,0.7,2.2,0.7,3.6v43.4c0,2.7-0.8,4.8-2.5,6.3c-1.7,1.5-4,2.3-7.1,2.3c-1.5,0-2.8-0.2-4-0.6
			c-1.2-0.4-2.2-1-3-1.7s-1.5-1.6-2-2.7c-0.4-1.1-0.7-2.2-0.7-3.6V150z M163.5,150c0-0.9-0.2-1.6-0.7-2.2s-1.2-0.8-2.2-0.8
			c-1,0-1.7,0.3-2.2,0.8c-0.5,0.5-0.7,1.3-0.7,2.2v43.4c0,0.9,0.2,1.6,0.7,2.2c0.5,0.5,1.2,0.8,2.2,0.8c1,0,1.7-0.3,2.2-0.8
			c0.5-0.5,0.7-1.3,0.7-2.2V150z"/>
	</g>
	<g>
		<path class="st0" d="M198.5,201.2c-0.3,0-0.5-0.1-0.7-0.3c-0.2-0.2-0.3-0.4-0.3-0.7l-5.5-56.8c0-0.3,0.1-0.6,0.3-0.9
			c0.2-0.3,0.6-0.4,1-0.4h2.4c0.8,0,1.5,0.2,2.1,0.7c0.5,0.5,0.9,1.1,0.9,1.8l2.6,42.2l2.6-42.2c0.1-0.7,0.4-1.3,0.9-1.8
			c0.5-0.5,1.2-0.7,2.1-0.7h2.5c0.5,0,0.8,0.1,1,0.4c0.2,0.3,0.3,0.6,0.3,0.9l-5.5,56.8c0,0.3-0.1,0.5-0.3,0.7
			c-0.2,0.2-0.4,0.3-0.7,0.3H198.5z"/>
	</g>
	<g>
		<path class="st0" d="M246.8,142.2c0.3,0,0.6,0.1,0.8,0.2c0.2,0.2,0.3,0.4,0.3,0.8v1.7c0,0.9-0.2,1.6-0.7,2.1
			c-0.5,0.5-1.1,0.8-1.9,0.8h-6.1v21.4h6.6c0.3,0,0.6,0.1,0.8,0.2c0.2,0.2,0.3,0.4,0.3,0.8v1.7c0,0.9-0.2,1.6-0.7,2.1
			c-0.5,0.5-1.1,0.8-1.9,0.8h-5.1v20.8h6.1c0.8,0,1.4,0.3,1.9,0.8c0.5,0.5,0.7,1.2,0.7,2.1v1.7c0,0.3-0.1,0.6-0.3,0.8
			c-0.2,0.2-0.4,0.2-0.8,0.2h-13.3c-0.3,0-0.6-0.1-0.8-0.3c-0.2-0.2-0.2-0.5-0.2-0.8v-56.9c0-0.3,0.1-0.5,0.2-0.8
			c0.2-0.2,0.4-0.3,0.8-0.3H246.8z"/>
	</g>
</g>
</svg>
