<svg xmlns="http://www.w3.org/2000/svg" width="150" height="135" viewBox="0 0 164 147.912"><defs><style>.a{fill:#e85232;}.b{fill:none;stroke:#fff;stroke-miterlimit:10;stroke-width:0.25px;}</style></defs><path class="a" d="M200.168,100.268A43.6,43.6,0,0,0,145.813,58.36,42.744,42.744,0,0,0,126.4,69.094l3.54,2.055a33.163,33.163,0,0,1,4.339-3.711c12.5-8.907,26.378-9.021,40.024-2.626,13.36,6.28,20.44,17.3,21.982,31.916,1.6,14.845-2.683,28.091-12.846,38.768-10.277,10.791-21.468,20.783-32.373,31-5.71,5.367-11.819,10.391-17.357,15.93-5.424,5.481-10.391,11.419-15.815,17.471-15.244-21.125-36.255-36.313-55.1-53.784-10.962-10.163-19.3-21.7-22.267-36.655-4.91-24.893,12.9-48.074,38.2-48.816a38.633,38.633,0,0,1,27.349,9.649l3.083-1.77c-11.3-9.992-24.551-13.988-39.852-10.049C52.8,62.757,41.728,73.49,37.675,90.105c-4.168,17.186.571,33.058,11.647,46.19,8.621,10.22,18.9,19.013,28.89,28.034,13.075,11.819,26.549,23.181,36.883,37.683,2.683,3.768,3.2,3.882,5.995.057,8.793-11.933,19.584-21.867,30.6-31.631,10.677-9.535,21.3-19.127,31.459-29.233C194.4,130.015,200.453,116.483,200.168,100.268Z" transform="translate(-36.177 -56.977)"/><g transform="translate(58.113 9.806)"><path class="a" d="M153.627,102.689,138.382,89.1a3.566,3.566,0,0,0,.742,4.339l10.049,8.964A3.62,3.62,0,0,0,153.627,102.689Z" transform="translate(-137.96 -80.566)"/><path class="a" d="M160.755,85.078a3.2,3.2,0,0,0-.285-4.568L155.445,76l-5.424,3.14c.057.114.057.228.114.343a3.935,3.935,0,0,0-.457-.171l-5.767,3.312,5.767-3.312a7.12,7.12,0,0,0-7.936,1.884l-.343.4,15.416,13.7.343-.4a7.056,7.056,0,0,0,.457-8.793,2.394,2.394,0,0,0,.914.057A3.323,3.323,0,0,0,160.755,85.078Z" transform="translate(-139.436 -74.945)"/><path class="a" d="M161.563,74.979a3.2,3.2,0,0,0-4.568.285,3.391,3.391,0,0,0-.685,3.083l5.481-3.14Z" transform="translate(-145.782 -74.152)"/></g><g transform="translate(83.273 10.763)"><path class="a" d="M193.3,104.189,208.544,90.6a3.566,3.566,0,0,1-.742,4.339l-10.049,9.021A3.691,3.691,0,0,1,193.3,104.189Z" transform="translate(-186.864 -82.165)"/><path class="a" d="M201.824,82.61A7.237,7.237,0,0,0,194,80.669l4.111,2.4L194,80.669a2.028,2.028,0,0,0-.514.228,3.934,3.934,0,0,0,.171-.457l-5.367-3.14-5.2,4.625a3.3,3.3,0,0,0-.285,4.568,3.1,3.1,0,0,0,2.227,1.085,5.224,5.224,0,0,0,.914-.057,7.052,7.052,0,0,0,.457,8.793l.343.4,15.416-13.7Z" transform="translate(-182.027 -76.459)"/><path class="a" d="M197.582,76.9a3.3,3.3,0,0,0-4.568-.285l-.114.114,5.367,3.14A3.137,3.137,0,0,0,197.582,76.9Z" transform="translate(-186.692 -75.827)"/></g><g transform="translate(13.088 76.521)"><path class="a" d="M79.768,216.864,59.956,197.052a2.964,2.964,0,0,1,0-4.168l1.028-1.028a2.964,2.964,0,0,1,4.168,0l19.812,19.812a2.964,2.964,0,0,1,0,4.168l-1.028,1.028A2.964,2.964,0,0,1,79.768,216.864Z" transform="translate(-59.1 -191)"/><g transform="translate(2.798 3.312)"><g transform="translate(0.685 0.685)"><line class="b" x1="1.713" y2="1.656"/><line class="b" x2="1.713" y2="1.656"/></g><circle class="b" cx="1.542" cy="1.542" r="1.542"/></g><g transform="translate(20.726 20.554)"><g transform="translate(0.685 0.685)"><line class="b" x2="1.713" y2="1.713"/></g><circle class="b" cx="1.542" cy="1.542" r="1.542"/></g></g><g transform="translate(43.291 42.321)"><path class="a" d="M112.571,171.124a.648.648,0,0,1-.457-.171A.615.615,0,0,1,112,170.5V131.728a1.344,1.344,0,0,1,.114-.457.562.562,0,0,1,.457-.171h1.6a1.608,1.608,0,0,1,1.2.4,1.43,1.43,0,0,1,.457,1.028v35.342h3.483a1.462,1.462,0,0,1,1.085.457,1.608,1.608,0,0,1,.4,1.2v.971a.648.648,0,0,1-.171.457.615.615,0,0,1-.457.114h-7.594Z" transform="translate(-112 -131.1)"/><path class="a" d="M150.957,146.31a4.528,4.528,0,0,1,1.427-3.6,5.862,5.862,0,0,1,4.054-1.313,7,7,0,0,1,2.227.343,5.881,5.881,0,0,1,1.77.971,4.2,4.2,0,0,1,1.085,1.542,4.558,4.558,0,0,1,.4,2.055v24.779a4.527,4.527,0,0,1-1.427,3.6A5.862,5.862,0,0,1,156.438,176a7.109,7.109,0,0,1-2.284-.343,4.979,4.979,0,0,1-1.713-.971,4.531,4.531,0,0,1-1.142-1.542,5.726,5.726,0,0,1-.4-2.055V146.31Zm7.137,0a1.845,1.845,0,0,0-.4-1.256,1.489,1.489,0,0,0-1.256-.457,1.683,1.683,0,0,0-1.256.457,1.752,1.752,0,0,0-.4,1.256v24.779a1.845,1.845,0,0,0,.4,1.256,1.956,1.956,0,0,0,2.512,0,1.752,1.752,0,0,0,.4-1.256Z" transform="translate(-128.69 -135.519)"/><path class="a" d="M195.711,175.843a.585.585,0,0,1-.571-.571L192,142.842a.921.921,0,0,1,.171-.514.662.662,0,0,1,.571-.228h1.37a1.792,1.792,0,0,1,1.2.4,1.493,1.493,0,0,1,.514,1.028l1.484,24.094,1.484-24.094a1.771,1.771,0,0,1,.514-1.028,1.608,1.608,0,0,1,1.2-.4h1.427a.6.6,0,0,1,.571.228.921.921,0,0,1,.171.514l-3.14,32.43a.585.585,0,0,1-.571.571Z" transform="translate(-146.324 -135.82)"/><path class="a" d="M240.665,142.157a1.076,1.076,0,0,1,.457.114.562.562,0,0,1,.171.457v.971a1.608,1.608,0,0,1-.4,1.2,1.462,1.462,0,0,1-1.085.457h-3.483v12.218h3.768a1.076,1.076,0,0,1,.457.114.562.562,0,0,1,.171.457v.971a1.608,1.608,0,0,1-.4,1.2,1.462,1.462,0,0,1-1.085.457h-2.912v11.876h3.483a1.462,1.462,0,0,1,1.085.457,1.608,1.608,0,0,1,.4,1.2v.971a.648.648,0,0,1-.171.457c-.114.114-.228.114-.457.114h-7.594a.648.648,0,0,1-.457-.171.615.615,0,0,1-.114-.457V142.728a1.345,1.345,0,0,1,.114-.457.562.562,0,0,1,.457-.171h7.594Z" transform="translate(-163.7 -135.82)"/></g></svg>