<svg xmlns="http://www.w3.org/2000/svg" xmlns:xlink="http://www.w3.org/1999/xlink" width="10.844" height="17.596" viewBox="0 0 10.844 17.596"><defs><style>.a,.c{fill:#e85232;}.b{clip-path:url(#a);}.c{fill-rule:evenodd;}</style><clipPath id="a"><rect class="a" width="10.844" height="17.596" transform="translate(0 0)"/></clipPath></defs><g class="b"><path class="c" d="M9.749,7.314V5.231C9.749,2.332,7.819,0,5.422,0S1.1,2.332,1.1,5.231V7.314A2.284,2.284,0,0,0,0,9.365v6A2.044,2.044,0,0,0,1.786,17.6H9.058a2.044,2.044,0,0,0,1.786-2.227v-6a2.284,2.284,0,0,0-1.1-2.051M6.06,13.029v2.406H4.784V13.028a1.839,1.839,0,1,1,1.277,0M8.546,7.14H2.3V5.231c0-2.094,1.393-3.779,3.124-3.779S8.546,3.137,8.546,5.231Z" transform="translate(0 0)"/></g></svg>