<svg xmlns="http://www.w3.org/2000/svg" xmlns:xlink="http://www.w3.org/1999/xlink" width="21" height="21" viewBox="0 0 21 21"><defs><style>.a{fill:none;}.b{clip-path:url(#a);}.c{fill:#e85232;}</style><clipPath id="a"><rect class="a" width="21" height="21"/></clipPath></defs><g class="b"><path class="c" d="M3.15,3.15A9.532,9.532,0,0,1,10.5,0a9.532,9.532,0,0,1,7.35,3.15A9.532,9.532,0,0,1,21,10.5a9.532,9.532,0,0,1-3.15,7.35A9.532,9.532,0,0,1,10.5,21a9.532,9.532,0,0,1-7.35-3.15A10.479,10.479,0,0,1,0,10.5,9.532,9.532,0,0,1,3.15,3.15ZM15.225,15.225,16.45,14,12.075,9.625l-1.575-7H8.75V10.5a1.589,1.589,0,0,0,.525,1.225.611.611,0,0,0,.35.175Z"/></g></svg>