<?xml version="1.0" encoding="utf-8"?>
<!-- Generator: Adobe Illustrator 25.0.0, SVG Export Plug-In . SVG Version: 6.00 Build 0)  -->
<svg version="1.1" id="Layer_1" xmlns="http://www.w3.org/2000/svg" xmlns:xlink="http://www.w3.org/1999/xlink" x="0px" y="0px"
	 viewBox="0 0 360 131" style="enable-background:new 0 0 360 131;" xml:space="preserve">
<style type="text/css">
	.st0{clip-path:url(#SVGID_2_);}
</style>
<g>
	<defs>
		<rect id="SVGID_1_" x="10.4" y="10.2" width="339.6" height="110.7"/>
	</defs>
	<clipPath id="SVGID_2_">
		<use xlink:href="#SVGID_1_"  style="overflow:visible;"/>
	</clipPath>
	<g id="Group_940" class="st0">
		<path id="Path_1038" d="M63.8,53.5H10.4V10.2h8.1v35.4H33V10.2h8.2V12c0,10.7,0,21.3,0,32c0,1.3,0.3,1.7,1.7,1.7
			c3.7-0.1,7.4,0,11.1,0c0.5,0,1-0.1,1.7-0.1V10.2h8.2L63.8,53.5z"/>
		<path id="Path_1039" d="M175.4,23.1v30.3h-7.8V30.7h-10.3v22.7h-7.9V30.7h-10.3v22.8h-7.7V23.1H175.4z"/>
		<path id="Path_1040" d="M140.3,76.9h7.8v25.5c1.7-1.8,3.1-3.3,4.4-4.8c2-2.2,3.9-4.4,5.8-6.6c0.7-0.9,1.7-1.3,2.8-1.3
			c2.7,0.1,5.4,0,8.6,0l-13.5,14.8l14.5,15.8c-3.7,0-7,0-10.3,0c-0.4,0-0.9-0.5-1.2-0.9c-3.4-3.9-6.9-7.9-10.3-11.8
			c-0.2-0.3-0.3-0.6-0.5-0.9l-0.4,0.3v13.4c-2.5,0-4.8,0-7.1,0c-0.3,0-0.6-0.5-0.7-0.8c-0.1-0.2,0-0.5,0-0.7L140.3,76.9L140.3,76.9z
			"/>
		<path id="Path_1041" d="M324.5,64.1c1.7-4.1,3.4-7.9,4.9-11.8c0.2-0.6,0.3-1.2,0.1-1.8c-3.8-8.6-7.6-17.2-11.4-25.8
			c-0.2-0.5-0.4-1-0.6-1.7c2.8,0,5.4,0,8,0c0.3,0,0.7,0.6,0.9,0.9c2.2,5.2,4.3,10.3,6.5,15.5c0.3,0.8,0.7,1.7,1.2,2.8
			c0.6-1.5,1.1-2.7,1.6-3.9c1.9-4.8,3.8-9.6,5.7-14.4c0.2-0.5,0.6-0.8,1.1-0.9c2.4-0.1,4.8,0,7.5,0c-0.6,1.5-1.1,2.9-1.7,4.3
			c-4.9,11.9-9.9,23.8-14.9,35.7c-0.2,0.5-0.7,0.9-1.3,1C329.7,64.2,327.2,64.1,324.5,64.1"/>
		<path id="Path_1042" d="M243.7,53.4V10.3h7.8V46h4.6v7.4L243.7,53.4z"/>
		<path id="Path_1043" d="M123.2,89.9v7.4h-10.4v23H105V89.9H123.2z"/>
		<path id="Path_1044" d="M41.3,78.4v-1.5H10.4v43.3h8.2v-15.6c0.7,0,1.2-0.1,1.8-0.1c6.4,0,12.8,0,19.3,0c1.2,0,1.7-0.3,1.7-1.6
			C41.3,94.7,41.3,86.6,41.3,78.4 M33,96.6H18.7V84.8c0.7,0,1.3-0.1,2-0.1c3.7,0,7.4,0,11.1,0c0.4,0,1.1,0.5,1.2,0.7
			C33,89.2,33,92.8,33,96.6"/>
		<path id="Path_1045" d="M226,34.6c-1.3-5.9-4.6-10.1-10.5-11.8c-4.1-1.2-8-0.1-11.6,2.8V10.3H196v43.2h7.8c0-0.8,0.1-1.5,0.1-2.4
			c0.2,0.1,0.5,0.3,0.7,0.5c3.8,3.4,10.5,3.5,15,0.4C224.9,47.9,227.4,41.1,226,34.6 M217,43.2c-2.9,4.4-8.8,4.4-12.2,1.1
			c-0.5-0.6-0.9-1.4-0.9-2.2c-0.1-1.2-0.1-2.5,0-3.7c0-1.2,0.1-2.4,0-3.6c-0.1-1.2,0.5-2.4,1.5-3c3.1-2.6,7.7-2.5,10.6,0.3
			C218.8,34.8,219.2,39.8,217,43.2"/>
		<path id="Path_1046" d="M77.1,89.9v2.4c-0.4-0.2-0.5-0.3-0.6-0.4c-6.2-4.7-14.6-3-19,3.6c-3.8,5.8-3.8,13.4-0.1,19.2
			c3.3,5.3,9.8,7.6,15.7,5.4c1.4-0.6,2.7-1.3,3.9-2.2c0,0.7,0.1,1.5,0.1,2.3H85V89.9H77.1z M77.1,101.7c-0.1,1.1-0.1,2.3,0,3.4v2
			c0,3.6-1.6,5.5-5.2,6.1c-3.3,0.7-6.7-0.8-8.3-3.8c-1.6-3-1.4-6.7,0.5-9.5c2.5-3.5,7.4-4.3,10.9-1.8c0.2,0.2,0.4,0.3,0.6,0.5
			C76.7,99.3,77.3,100.5,77.1,101.7"/>
		<path id="Path_1047" d="M106.7,42.6c-2.8,3.7-6.3,4.9-10.4,3.4c-2.5-0.8-4.4-3-4.7-5.7h1.7c5.8,0,11.5,0,17.3,0
			c1.3,0,1.7-0.4,1.7-1.6c0.1-1.4,0-2.7-0.1-4.1c-1.8-11.5-13.7-14.8-21.4-10.1c-9.6,5.8-9.8,20.4-0.6,26.9
			c6.9,4.9,17.8,2.9,22.2-4.2L106.7,42.6 M98.4,29.4c3,0,5.5,2.2,5.9,5.2H91.7C92.3,31.5,95.2,29.2,98.4,29.4"/>
		<path id="Path_1048" d="M297.2,43.5c-0.8-0.7-1.4-0.8-2.1,0.1c-1.4,1.8-3.4,2.8-5.6,2.9c-4,0.5-8.1-2.5-8.5-6.2h1.2c6,0,12,0,18,0
			c0.6,0,1.2,0.1,1.3-0.8c0.8-5.5-1.3-10.9-5.7-14.4c-6.7-4.9-19-3.3-22.3,7.9c-1.9,6.5,0.4,14.1,5.3,17.9
			c7.3,5.6,18.2,3.3,22.9-3.6C300.2,46.1,298.7,44.8,297.2,43.5 M287.7,29.4c3,0,5.5,2.3,5.9,5.3H281
			C281.5,31.5,284.4,29.2,287.7,29.4"/>
	</g>
</g>
</svg>
