<svg xmlns="http://www.w3.org/2000/svg" width="30.203" height="24.163" viewBox="0 0 30.203 24.163"><defs><style>.a{fill:#e85232;fill-rule:evenodd;}</style></defs><g transform="translate(0)"><path class="a" d="M22.126,181.023a11.26,11.26,0,0,0-14.044-.008,1.461,1.461,0,0,0-.233,2.066,1.491,1.491,0,0,0,2.085.232,8.274,8.274,0,0,1,10.329,0,1.494,1.494,0,0,0,2.087-.221,1.462,1.462,0,0,0-.223-2.068m3.736-4.852a17.173,17.173,0,0,0-21.509-.085,1.461,1.461,0,0,0-.239,2.066,1.493,1.493,0,0,0,2.086.236,14.188,14.188,0,0,1,17.789.064,1.494,1.494,0,0,0,2.088-.214,1.462,1.462,0,0,0-.215-2.068m3.818-4.822a22.777,22.777,0,0,0-10.259-4.934A22.346,22.346,0,0,0,.514,171.471a1.462,1.462,0,0,0-.152,2.075,1.492,1.492,0,0,0,2.092.151,19.388,19.388,0,0,1,16.392-4.4,19.785,19.785,0,0,1,8.911,4.29,1.492,1.492,0,0,0,2.092-.167,1.46,1.46,0,0,0-.168-2.073M17.6,187.692a2.5,2.5,0,1,1-2.495-2.474,2.485,2.485,0,0,1,2.495,2.474" transform="translate(0 -166)"/></g></svg>